<svg width="172" height="50" viewBox="0 0 172 50" fill="none" xmlns="http://www.w3.org/2000/svg">
<g clip-path="url(#clip0_39_5411)">
<path d="M67.7087 23.7462C67.7099 23.962 67.6655 24.1757 67.5787 24.3733C67.4918 24.5709 67.3643 24.748 67.2045 24.8932C67.0447 25.0383 66.8561 25.1481 66.6511 25.2156C66.446 25.2831 66.2291 25.3066 66.0143 25.2848C65.8027 25.2987 65.5904 25.2693 65.3905 25.1986C65.1905 25.1278 65.007 25.0171 64.8513 24.8731C64.6955 24.7292 64.5706 24.555 64.4843 24.3613C64.398 24.1675 64.352 23.9583 64.3491 23.7462V8.54993C64.3641 8.20133 64.4479 7.85916 64.5958 7.54311C64.7436 7.22706 64.9526 6.9434 65.2106 6.70849C65.4686 6.47358 65.7705 6.29206 66.099 6.1744C66.4275 6.05673 66.776 6.00525 67.1245 6.02292H73.0355C74.9831 6.02292 76.843 6.60232 78.0067 7.56152C78.567 8.03873 79.0106 8.6379 79.3035 9.3131C79.5963 9.98829 79.7307 10.7216 79.6963 11.4567C79.6963 14.8407 77.1498 16.9344 73.0355 16.9344H67.7087V23.7462ZM72.7044 13.7208C74.8516 13.7208 76.3415 12.8152 76.3415 11.5006C76.3415 10.0886 74.9539 9.2024 72.7044 9.2024H68.3953C67.811 9.23161 67.738 9.2803 67.7136 9.81102V13.7062L72.7044 13.7208Z" fill="black"/>
<path d="M86.6443 7.94117C86.6442 8.37272 86.5155 8.79446 86.2747 9.15256C86.0339 9.51065 85.6918 9.78886 85.2921 9.95169C84.8925 10.1145 84.4534 10.1546 84.0309 10.0668C83.6083 9.97896 83.2216 9.76726 82.9199 9.45867C82.6182 9.15008 82.4153 8.75859 82.3371 8.33419C82.2589 7.90979 82.3089 7.47171 82.4808 7.07585C82.6526 6.68 82.9385 6.34432 83.302 6.11166C83.6654 5.879 84.09 5.75991 84.5214 5.76959C85.0873 5.78718 85.6244 6.02312 86.0201 6.42795C86.4159 6.83278 86.6396 7.37506 86.6443 7.94117ZM82.8806 12.8102C82.9031 12.4038 83.0804 12.0214 83.376 11.7417C83.6717 11.4619 84.0633 11.306 84.4703 11.306C84.8773 11.306 85.2689 11.4619 85.5646 11.7417C85.8602 12.0214 86.0375 12.4038 86.06 12.8102V23.7655C86.0375 24.1719 85.8602 24.5543 85.5646 24.834C85.2689 25.1138 84.8773 25.2697 84.4703 25.2697C84.0633 25.2697 83.6717 25.1138 83.376 24.834C83.0804 24.5543 82.9031 24.1719 82.8806 23.7655V12.8102Z" fill="black"/>
<path d="M89.9503 12.6351C89.9802 12.241 90.164 11.8746 90.462 11.6149C90.7599 11.3553 91.148 11.2232 91.5425 11.2474C91.8579 11.2417 92.1684 11.3268 92.4369 11.4925C92.7053 11.6582 92.9205 11.8977 93.0567 12.1823C94.0638 11.5386 95.2412 11.2129 96.4358 11.2474C97.8786 11.1852 99.2897 11.6823 100.375 12.6351C101.388 13.6089 101.836 14.9089 101.836 16.9296V23.9215C101.801 24.3181 101.612 24.6854 101.31 24.9447C101.008 25.204 100.616 25.3348 100.219 25.3091C99.8246 25.3333 99.4365 25.2013 99.1386 24.9416C98.8406 24.682 98.6569 24.3155 98.6269 23.9215V16.803C98.6269 15.0355 97.9988 14.2516 96.5576 14.2516C95.2234 14.2516 94.2643 14.6849 93.1492 15.7123V23.8923C93.1145 24.288 92.9265 24.6545 92.6255 24.9137C92.3245 25.1729 91.9341 25.3043 91.5376 25.2799C91.1428 25.3054 90.754 25.1738 90.4558 24.9139C90.1576 24.654 89.9742 24.2868 89.9454 23.8923L89.9503 12.6351Z" fill="black"/>
<path d="M108.91 12.1824C109.894 11.5432 111.043 11.2048 112.216 11.2086C113.006 11.1873 113.79 11.3469 114.508 11.6752C115.226 12.0035 115.86 12.4917 116.36 13.1026C117.217 14.1641 117.597 15.4495 117.597 17.2949V23.8583C117.585 24.0556 117.534 24.2486 117.448 24.4263C117.362 24.604 117.241 24.763 117.093 24.8941C116.945 25.0253 116.773 25.126 116.586 25.1905C116.399 25.2551 116.202 25.2822 116.005 25.2703C115.604 25.2945 115.209 25.1599 114.907 24.8957C114.604 24.6314 114.418 24.2588 114.388 23.8583V17.5042C114.388 15.3083 113.682 14.2712 112.143 14.2712C110.931 14.2712 110.045 14.7581 108.91 16.0922V23.8826C108.858 24.2703 108.667 24.6257 108.372 24.8831C108.078 25.1405 107.7 25.2823 107.308 25.2823C106.917 25.2823 106.539 25.1405 106.245 24.8831C105.95 24.6257 105.759 24.2703 105.707 23.8826V7.2111C105.75 6.81669 105.938 6.45223 106.233 6.18749C106.529 5.92275 106.912 5.77637 107.308 5.77637C107.705 5.77637 108.088 5.92275 108.384 6.18749C108.679 6.45223 108.867 6.81669 108.91 7.2111V12.1824Z" fill="black"/>
<path d="M124.16 19.7048C124.769 21.4479 126.054 22.2562 128.226 22.2562C129.02 22.2839 129.809 22.1167 130.524 21.7693C130.85 21.6183 130.85 21.6183 132.34 20.5569C132.673 20.322 133.072 20.1992 133.479 20.2063C133.833 20.2092 134.173 20.3459 134.43 20.5888C134.688 20.8317 134.844 21.163 134.867 21.5161C134.788 22.1356 134.481 22.7034 134.005 23.1083C132.671 24.4716 130.446 25.3042 128.162 25.3042C123.746 25.3042 120.791 22.4509 120.791 18.1857C120.749 17.1994 120.932 16.2166 121.326 15.3115C121.719 14.4064 122.314 13.6027 123.064 12.9612C124.486 11.8339 126.251 11.2274 128.065 11.2425C132.179 11.2425 135.183 13.9935 135.183 17.7816C135.183 19.1936 134.696 19.7292 133.314 19.7292L124.16 19.7048ZM131.76 16.6763C131.103 14.9867 130.017 14.2418 128.099 14.2418C126.923 14.2068 125.776 14.6054 124.876 15.3617C124.459 15.6862 124.179 16.1553 124.092 16.6763H131.76Z" fill="black"/>
<path d="M151.047 21.0975C151.07 21.6462 151.199 22.1851 151.427 22.6848C151.613 23.0642 151.726 23.4757 151.758 23.8972C151.758 24.7298 151.076 25.2849 150.015 25.2849C149.129 25.2849 148.627 24.8564 148.247 23.7219C146.353 24.8807 144.99 25.2849 143.174 25.2849C140.043 25.2849 137.643 23.1669 137.643 20.3866C137.643 18.439 138.831 17.0319 140.978 16.4233C141.913 16.1701 142.594 16.097 144.586 16.0435C146.178 15.9948 147.02 15.8195 147.415 15.4641C146.709 14.6558 145.672 14.2517 144.157 14.2517C143.409 14.2439 142.668 14.4001 141.986 14.7094C141.438 14.8995 140.939 15.2088 140.525 15.615C140.205 15.9005 139.795 16.0628 139.366 16.0727C138.996 16.074 138.639 15.929 138.375 15.6692C138.111 15.4093 137.959 15.0557 137.954 14.685C137.954 12.9662 141.109 11.2231 144.211 11.2231C148.106 11.2231 151.052 13.5213 151.052 16.5255L151.047 21.0975ZM147.843 18.3417C146.684 18.6484 145.973 18.7214 143.174 18.8724C141.582 18.9503 140.851 19.4031 140.851 20.3331C140.851 21.4919 141.825 22.2807 143.286 22.2807C144.975 22.2807 146.207 21.7938 147.853 20.4402L147.843 18.3417Z" fill="black"/>
<path d="M164.86 7.23509C164.868 7.0321 164.916 6.83264 165.002 6.64853C165.088 6.46442 165.209 6.29938 165.36 6.16319C165.511 6.027 165.687 5.92243 165.879 5.85565C166.071 5.78887 166.274 5.76123 166.477 5.77439C166.679 5.75977 166.881 5.78655 167.073 5.85308C167.264 5.91961 167.439 6.02447 167.588 6.16126C167.737 6.29804 167.857 6.46386 167.94 6.64852C168.022 6.83317 168.066 7.03278 168.069 7.23509V23.9456C168.054 24.1385 168 24.3265 167.912 24.4987C167.823 24.6708 167.701 24.8235 167.553 24.9481C167.405 25.0727 167.234 25.1666 167.049 25.2244C166.864 25.2821 166.67 25.3026 166.477 25.2846C166.124 25.3124 165.773 25.217 165.482 25.0146C165.192 24.8121 164.981 24.5152 164.885 24.1744C163.79 24.9338 162.482 25.3259 161.15 25.2943C157.133 25.2943 154.28 22.3729 154.28 18.3024C154.245 17.2997 154.433 16.3017 154.83 15.3805C155.227 14.4593 155.825 13.6379 156.578 12.9757C157.824 11.8677 159.429 11.2485 161.097 11.2326C162.438 11.2228 163.75 11.62 164.86 12.3719V7.23509ZM157.499 18.3413C157.499 20.5665 159.013 22.2366 161.058 22.2366C163.205 22.2366 164.87 20.4448 164.87 18.1466C164.877 17.6359 164.783 17.129 164.591 16.6555C164.4 16.1819 164.117 15.7511 163.757 15.3885C163.398 15.0258 162.97 14.7384 162.498 14.5432C162.026 14.3479 161.52 14.2487 161.009 14.2514C159.003 14.2514 157.499 16.0432 157.499 18.3413Z" fill="black"/>
<path d="M66.6618 41.27L64.6314 45.5645C64.4833 45.8377 64.2578 46.0611 63.9832 46.2066C63.7086 46.3522 63.3972 46.4133 63.0879 46.3825C62.0606 46.3825 61.525 45.9394 61.525 45.0971C61.523 44.8859 61.5714 44.6772 61.6662 44.4884L68.7603 29.5746C69.1791 28.6885 69.627 28.3379 70.221 28.3379C70.8151 28.3379 71.2484 28.6641 71.6817 29.5503L78.7321 44.4884C78.8081 44.6586 78.8479 44.8426 78.8489 45.0289C78.8489 45.8226 78.1965 46.3825 77.2373 46.3825C76.9331 46.4081 76.6282 46.3414 76.3624 46.1911C76.0966 46.0409 75.8823 45.814 75.7474 45.5401L73.7511 41.27H66.6618ZM70.2308 33.611L67.9667 38.3048H72.4705L70.2308 33.611Z" fill="black"/>
<path d="M80.9475 34.6627C80.9738 34.2997 81.1416 33.9615 81.4148 33.7211C81.6881 33.4806 82.0448 33.3572 82.4082 33.3773C82.7007 33.3708 82.9888 33.4493 83.2376 33.6031C83.4865 33.7569 83.6855 33.9795 83.8105 34.244C84.7414 33.6469 85.8309 33.3449 86.9364 33.3773C88.2707 33.3203 89.5755 33.7808 90.5784 34.6627C91.5133 35.5489 91.932 36.7661 91.932 38.631V45.097C91.8997 45.4639 91.7254 45.8036 91.4461 46.0438C91.1669 46.2839 90.8048 46.4054 90.4372 46.3824C90.0741 46.4013 89.7181 46.2774 89.4451 46.0372C89.1722 45.797 89.004 45.4596 88.9765 45.097V38.5384C88.9765 36.9025 88.3971 36.1818 87.063 36.1818C86.4726 36.1757 85.8874 36.293 85.345 36.5261C84.8025 36.7592 84.3147 37.1029 83.9127 37.5354V45.097C83.8804 45.4639 83.7061 45.8036 83.4268 46.0438C83.1476 46.2839 82.7855 46.4054 82.4179 46.3824C82.0545 46.4025 81.6978 46.2791 81.4246 46.0386C81.1513 45.7982 80.9835 45.46 80.9572 45.097L80.9475 34.6627Z" fill="black"/>
<path d="M106.7 42.5064C106.722 43.0107 106.839 43.5064 107.045 43.9671C107.218 44.3174 107.322 44.6975 107.352 45.0869C107.352 45.8562 106.719 46.3724 105.741 46.3724C104.923 46.3724 104.455 45.9731 104.105 44.9117C102.357 45.9828 101.096 46.3724 99.4157 46.3724C96.5186 46.3724 94.3032 44.4247 94.3032 41.8442C94.3032 40.0475 95.3988 38.7377 97.3853 38.1778C98.4763 37.912 99.5982 37.7941 100.721 37.8272C102.181 37.7785 102.985 37.6179 103.335 37.2916C102.683 36.5418 101.724 36.1717 100.326 36.1717C99.6336 36.1649 98.9476 36.3078 98.3153 36.5905C97.8072 36.7673 97.3448 37.055 96.9617 37.4328C96.664 37.6923 96.2853 37.8403 95.8905 37.8516C95.5466 37.8542 95.2156 37.7203 94.9701 37.4794C94.7246 37.2385 94.5846 36.9101 94.5808 36.5661C94.5808 34.9788 97.5022 33.3672 100.37 33.3672C103.968 33.3672 106.7 35.495 106.7 38.2703V42.5064ZM103.735 39.9598C102.658 40.2423 102.006 40.3104 99.4157 40.4468C97.955 40.5149 97.2685 40.9337 97.2685 41.776C97.2685 42.8521 98.1546 43.5775 99.5082 43.5775C101.071 43.5775 102.215 43.0906 103.735 41.8734V39.9598Z" fill="black"/>
<path d="M109.733 29.735C109.755 29.3565 109.921 29.0006 110.196 28.7403C110.472 28.48 110.837 28.335 111.216 28.335C111.595 28.335 111.96 28.48 112.236 28.7403C112.511 29.0006 112.677 29.3565 112.699 29.735V44.9556C112.694 45.1474 112.652 45.3365 112.575 45.512C112.497 45.6876 112.386 45.8461 112.247 45.9786C112.108 46.1111 111.944 46.2149 111.765 46.2842C111.587 46.3534 111.396 46.3867 111.204 46.3822C110.822 46.3823 110.456 46.2331 110.183 45.9665C109.91 45.6999 109.752 45.337 109.743 44.9556L109.733 29.735Z" fill="black"/>
<path d="M124.326 34.1953C124.435 33.9329 124.626 33.7122 124.869 33.5651C125.112 33.418 125.396 33.3523 125.679 33.3773C126.59 33.3773 127.194 33.9178 127.194 34.6871C127.19 34.9413 127.144 35.193 127.057 35.432L121.57 48.0623C120.986 49.3915 120.109 50.0099 118.722 50.0099C116.774 50.0099 115.688 49.4013 115.688 48.3544C115.687 47.9887 115.822 47.6358 116.069 47.3654C116.315 47.0949 116.653 46.9266 117.017 46.8937C117.263 46.9048 117.506 46.944 117.743 47.0106C117.984 47.0894 118.235 47.1368 118.488 47.1518C118.537 47.155 118.585 47.1432 118.627 47.1179C118.669 47.0927 118.702 47.0552 118.722 47.0106L119.656 45.2139L114.963 35.5197C114.856 35.2772 114.799 35.0154 114.797 34.7504C114.793 34.5612 114.829 34.3733 114.902 34.1987C114.975 34.0242 115.084 33.867 115.222 33.7371C115.359 33.6073 115.523 33.5077 115.701 33.4449C115.88 33.3821 116.069 33.3574 116.258 33.3724C116.54 33.3534 116.821 33.4187 117.065 33.56C117.31 33.7014 117.507 33.9124 117.631 34.1661L121.205 41.4063L124.326 34.1953Z" fill="black"/>
<path d="M135.412 33.6107C135.592 33.6088 135.77 33.6423 135.936 33.7094C136.103 33.7764 136.254 33.8757 136.382 34.0014C136.51 34.1272 136.612 34.277 136.682 34.4422C136.752 34.6074 136.789 34.7849 136.79 34.9643C136.807 35.1533 136.783 35.3436 136.721 35.5228C136.659 35.702 136.559 35.8659 136.429 36.0039C136.299 36.1419 136.141 36.2507 135.966 36.3233C135.791 36.3959 135.602 36.4306 135.412 36.425H133.64V43.0079C133.64 43.4705 133.64 43.4705 133.966 43.4705C134.4 43.472 134.832 43.418 135.252 43.3098C135.568 43.2089 135.895 43.1468 136.226 43.1248C136.561 43.1617 136.869 43.3287 137.083 43.5899C137.297 43.8512 137.4 44.1859 137.37 44.5222C137.38 44.7268 137.346 44.9312 137.269 45.1212C137.193 45.3112 137.076 45.4823 136.927 45.6226C136.342 46.1095 135.106 46.3919 133.708 46.3919C131.761 46.3919 130.694 45.272 130.694 43.2417V36.425H129.648C129.284 36.4149 128.939 36.2641 128.684 36.0043C128.43 35.7445 128.287 35.3961 128.284 35.0325C128.289 34.6663 128.435 34.316 128.692 34.0548C128.948 33.7936 129.296 33.6415 129.662 33.6302H130.665V29.6766C130.702 29.3087 130.874 28.9676 131.148 28.7195C131.422 28.4714 131.778 28.334 132.148 28.334C132.517 28.334 132.874 28.4714 133.148 28.7195C133.422 28.9676 133.594 29.3087 133.63 29.6766V33.5961L135.412 33.6107Z" fill="black"/>
<path d="M142.745 30.3439C142.746 30.7445 142.627 31.1362 142.404 31.4688C142.18 31.8013 141.863 32.0596 141.492 32.2106C141.121 32.3615 140.713 32.3981 140.321 32.3158C139.929 32.2335 139.57 32.036 139.291 31.7486C139.012 31.4612 138.825 31.097 138.755 30.7027C138.684 30.3084 138.733 29.902 138.895 29.5355C139.056 29.1691 139.324 28.8593 139.663 28.6459C140.002 28.4326 140.397 28.3253 140.797 28.3379C141.318 28.3579 141.81 28.5775 142.173 28.951C142.535 29.3245 142.74 29.8233 142.745 30.3439ZM139.264 34.8283C139.264 34.4409 139.417 34.0694 139.691 33.7954C139.965 33.5215 140.337 33.3676 140.724 33.3676C141.112 33.3676 141.483 33.5215 141.757 33.7954C142.031 34.0694 142.185 34.4409 142.185 34.8283V44.9559C142.185 45.3433 142.031 45.7148 141.757 45.9888C141.483 46.2627 141.112 46.4166 140.724 46.4166C140.337 46.4166 139.965 46.2627 139.691 45.9888C139.417 45.7148 139.264 45.3433 139.264 44.9559V34.8283Z" fill="black"/>
<path d="M157.425 41.8981C157.425 42.5992 156.914 43.534 156.096 44.3764C155.448 45.0202 154.679 45.5291 153.833 45.8735C152.987 46.2178 152.082 46.3908 151.168 46.3824C147.434 46.3824 144.61 43.6266 144.61 39.9602C144.61 36.1575 147.531 33.3773 151.495 33.3773C152.358 33.3475 153.218 33.496 154.022 33.8135C154.825 34.131 155.554 34.6107 156.164 35.2226C156.933 35.9725 157.352 36.7418 157.352 37.4186C157.32 37.7581 157.155 38.0712 156.894 38.29C156.632 38.5088 156.295 38.6156 155.955 38.5871C155.297 38.5871 155.044 38.4459 154.436 37.7204C154.045 37.2313 153.547 36.8382 152.981 36.5715C152.414 36.3048 151.794 36.1715 151.168 36.1818C150.685 36.1684 150.204 36.2553 149.755 36.4369C149.307 36.6185 148.901 36.891 148.563 37.2373C148.225 37.5835 147.962 37.9959 147.791 38.4486C147.62 38.9013 147.545 39.3845 147.57 39.8677C147.57 40.3677 147.67 40.8626 147.866 41.3228C148.061 41.7829 148.348 42.1989 148.708 42.5458C149.068 42.8927 149.494 43.1634 149.961 43.3415C150.429 43.5197 150.927 43.6017 151.426 43.5827C151.986 43.5806 152.536 43.441 153.028 43.176C153.521 42.9111 153.941 42.5291 154.251 42.0636C154.854 41.1288 154.903 41.0606 155.224 40.895C155.482 40.7541 155.773 40.682 156.067 40.6857C156.402 40.688 156.725 40.8124 156.975 41.0355C157.225 41.2587 157.385 41.5653 157.425 41.8981Z" fill="black"/>
<path d="M169.496 34.8474C169.824 35.0592 170.098 35.3464 170.294 35.6851C170.489 36.0239 170.601 36.4044 170.62 36.7951C170.616 36.9657 170.577 37.1338 170.506 37.2887C170.434 37.4437 170.332 37.5823 170.204 37.696C170.077 37.8097 169.927 37.896 169.765 37.9495C169.603 38.0031 169.432 38.0228 169.262 38.0074C168.566 38.0074 168.468 37.9636 167.606 37.2138C166.822 36.5361 165.819 36.1644 164.782 36.1669C163.614 36.1669 162.776 36.5857 162.776 37.1407C162.776 37.6958 163.219 37.9344 164.924 38.2168C167.441 38.6112 168.867 38.9861 169.544 39.4049C170.026 39.688 170.423 40.0954 170.694 40.5845C170.965 41.0736 171.099 41.6263 171.083 42.1851C171.083 44.751 168.751 46.387 165.109 46.387C163.054 46.387 161.608 45.9001 160.532 44.8679C159.694 44.0743 159.134 43.0956 159.134 42.4334C159.145 42.2469 159.192 42.0643 159.275 41.8967C159.357 41.729 159.472 41.5796 159.614 41.4574C159.755 41.3352 159.919 41.2427 160.097 41.1853C160.275 41.128 160.462 41.107 160.649 41.1236C160.961 41.1155 161.267 41.2152 161.515 41.406C161.7 41.5667 161.7 41.5667 162.236 42.4334C162.659 43.154 163.697 43.602 164.967 43.602C166.998 43.602 168.123 43.0858 168.123 42.1753C168.123 41.5667 167.957 41.4742 165.644 41.0068C162.844 40.4225 161.725 40.0768 161.116 39.6288C160.71 39.3473 160.379 38.9708 160.151 38.532C159.924 38.0933 159.807 37.6057 159.811 37.1115C159.811 34.94 161.91 33.3965 164.899 33.3965C166.542 33.4108 168.142 33.9161 169.496 34.8474Z" fill="black"/>
<path d="M14.2322 35.2324C16.1798 38.0954 17.6405 40.8026 17.475 44.1087C17.3727 45.9005 17.5091 48.2473 16.2188 49.0799C15.1768 49.747 13.3363 48.0428 11.9681 47.1859C2.35665 41.1532 -2.07416 28.8443 1.44128 18.0594C3.15779 12.6165 6.65225 7.9077 11.3644 4.68791C16.0765 1.46812 21.7333 -0.0761076 27.4279 0.302816C33.1224 0.68174 38.5247 2.96187 42.7687 6.77762C47.0127 10.5934 49.8524 15.7237 50.8326 21.346C52.6877 32.3792 47.473 43.0764 37.7155 48.2425C35.281 49.5425 34.7308 49.3283 33.7424 46.6698C32.754 44.0113 32.9 43.8019 35.6169 43.8555C38.3339 43.909 38.6698 43.5244 38.5384 40.7539C38.4799 39.4149 39.4002 37.9201 37.9687 36.7808C39.7021 35.8946 38.5919 33.0949 40.8463 32.5399C42.4725 32.1357 42.9253 31.1084 42.0684 29.6769C40.6661 27.3398 40.335 24.764 40.038 22.1299C39.3077 15.62 33.7959 10.1229 27.3055 9.30002C20.6788 8.46255 14.2322 11.9975 11.8172 17.7965C11.8172 17.7965 7.84891 27.5053 14.2322 35.2324Z" stroke="#02D7FF" stroke-width="0.486902" stroke-miterlimit="10"/>
<path d="M25.2702 16.7056C24.7326 16.7033 24.2081 16.8705 23.771 17.1834C23.3339 17.4963 23.0066 17.9391 22.8357 18.4487H10.3271V20.0798H22.8551C23.0054 20.5248 23.2754 20.9197 23.6354 21.2213C23.9954 21.5229 24.4315 21.7195 24.8959 21.7895C25.3603 21.8595 25.835 21.8002 26.2679 21.6182C26.7008 21.4361 27.0752 21.1383 27.35 20.7575C27.6247 20.3766 27.7893 19.9274 27.8256 19.4592C27.8618 18.991 27.7684 18.5218 27.5555 18.1032C27.3427 17.6846 27.0186 17.3327 26.6189 17.0861C26.2192 16.8396 25.7593 16.7079 25.2897 16.7056H25.2702ZM25.2702 20.2795C25.0689 20.2795 24.8722 20.2198 24.7048 20.108C24.5375 19.9961 24.407 19.8372 24.33 19.6513C24.253 19.4653 24.2328 19.2607 24.2721 19.0633C24.3114 18.8659 24.4083 18.6846 24.5506 18.5423C24.6929 18.3999 24.8743 18.303 25.0717 18.2638C25.2691 18.2245 25.4737 18.2446 25.6596 18.3217C25.8456 18.3987 26.0045 18.5291 26.1163 18.6965C26.2281 18.8638 26.2878 19.0606 26.2878 19.2618C26.2878 19.5317 26.1806 19.7906 25.9897 19.9814C25.7989 20.1722 25.5401 20.2795 25.2702 20.2795Z" stroke="#02D7FF" stroke-width="0.486902" stroke-miterlimit="10"/>
<path d="M27.1935 31.4346C26.6554 31.4326 26.1304 31.6005 25.6932 31.9144C25.2561 32.2282 24.9292 32.672 24.759 33.1826H12.2505V34.8088H24.7785C24.9288 35.2538 25.1987 35.6487 25.5587 35.9503C25.9187 36.2519 26.3548 36.4485 26.8192 36.5185C27.2836 36.5885 27.7583 36.5292 28.1912 36.3472C28.6241 36.1651 28.9985 35.8673 29.2733 35.4865C29.5481 35.1056 29.7126 34.6564 29.7489 34.1882C29.7852 33.72 29.6917 33.2508 29.4789 32.8322C29.266 32.4136 28.942 32.0617 28.5422 31.8151C28.1425 31.5686 27.6826 31.4369 27.213 31.4346H27.1935ZM27.1935 35.0085C26.9932 35.0085 26.7974 34.9491 26.6309 34.8378C26.4643 34.7265 26.3345 34.5683 26.2579 34.3833C26.1812 34.1982 26.1611 33.9946 26.2002 33.7981C26.2393 33.6017 26.3358 33.4212 26.4774 33.2796C26.619 33.1379 26.7995 33.0415 26.9959 33.0024C27.1924 32.9633 27.396 32.9834 27.5811 33.06C27.7661 33.1367 27.9243 33.2665 28.0356 33.433C28.1469 33.5996 28.2063 33.7954 28.2063 33.9957C28.2095 34.1307 28.1857 34.265 28.1363 34.3907C28.0868 34.5164 28.0128 34.631 27.9184 34.7276C27.824 34.8242 27.7113 34.901 27.5868 34.9535C27.4623 35.0059 27.3286 35.0328 27.1935 35.0328V35.0085Z" stroke="#02D7FF" stroke-width="0.486902" stroke-miterlimit="10"/>
<path d="M20.6008 26.5265C20.0627 26.5219 19.5371 26.6882 19.0996 27.0015C18.6621 27.3147 18.3353 27.7587 18.1663 28.2696H10.1031V29.9007H18.1906C18.3416 30.3438 18.6116 30.7369 18.9711 31.0368C19.3306 31.3367 19.7656 31.5319 20.2286 31.6011C20.6916 31.6703 21.1648 31.6107 21.5962 31.429C22.0276 31.2472 22.4007 30.9502 22.6747 30.5706C22.9486 30.1909 23.1128 29.7432 23.1492 29.2765C23.1857 28.8098 23.093 28.342 22.8814 27.9244C22.6698 27.5068 22.3473 27.1555 21.9494 26.9089C21.5514 26.6623 21.0933 26.53 20.6251 26.5265H20.6008ZM20.6008 30.1003C20.3995 30.1003 20.2028 30.0406 20.0354 29.9288C19.8681 29.817 19.7376 29.6581 19.6606 29.4721C19.5836 29.2862 19.5634 29.0816 19.6027 28.8842C19.642 28.6868 19.7389 28.5054 19.8812 28.3631C20.0235 28.2208 20.2048 28.1239 20.4022 28.0846C20.5996 28.0454 20.8042 28.0655 20.9902 28.1425C21.1761 28.2196 21.3351 28.35 21.4469 28.5173C21.5587 28.6847 21.6184 28.8814 21.6184 29.0827C21.6184 29.3526 21.5112 29.6114 21.3203 29.8023C21.1295 29.9931 20.8707 30.1003 20.6008 30.1003Z" stroke="#02D7FF" stroke-width="0.486902" stroke-miterlimit="10"/>
<path d="M35.5633 21.6138C35.025 21.6111 34.4996 21.7787 34.0624 22.0927C33.6251 22.4066 33.2983 22.8508 33.1288 23.3618H9.12939V24.988H33.1483C33.2993 25.4312 33.5693 25.8242 33.9288 26.1241C34.2882 26.424 34.7233 26.6193 35.1863 26.6885C35.6493 26.7576 36.1225 26.6981 36.5539 26.5163C36.9853 26.3345 37.3584 26.0376 37.6323 25.6579C37.9063 25.2783 38.0704 24.8306 38.1069 24.3638C38.1434 23.8971 38.0507 23.4293 37.8391 23.0117C37.6274 22.5941 37.305 22.2428 36.907 21.9963C36.5091 21.7497 36.0509 21.6174 35.5828 21.6138H35.5633ZM35.5633 25.1877C35.363 25.1877 35.1672 25.1283 35.0007 25.017C34.8341 24.9057 34.7043 24.7475 34.6277 24.5625C34.551 24.3774 34.5309 24.1738 34.57 23.9773C34.6091 23.7809 34.7056 23.6004 34.8472 23.4588C34.9888 23.3171 35.1693 23.2207 35.3657 23.1816C35.5622 23.1425 35.7658 23.1626 35.9509 23.2392C36.1359 23.3159 36.2941 23.4457 36.4054 23.6122C36.5167 23.7788 36.5761 23.9746 36.5761 24.1749C36.5761 24.4435 36.4694 24.7011 36.2795 24.891C36.0895 25.081 35.8319 25.1877 35.5633 25.1877V25.1877Z" stroke="#02D7FF" stroke-width="0.486902" stroke-miterlimit="10"/>
<path d="M14.4367 35.2324C16.3843 38.0954 17.845 40.8026 17.6794 44.1087C17.5772 45.9005 17.7135 48.2473 16.4232 49.0799C15.3813 49.747 13.5408 48.0428 12.1726 47.1859C2.56112 41.1532 -1.86969 28.8443 1.64574 18.0594C3.36225 12.6165 6.85672 7.9077 11.5688 4.68791C16.281 1.46812 21.9378 -0.0761076 27.6323 0.302816C33.3269 0.68174 38.7292 2.96187 42.9732 6.77762C47.2171 10.5934 50.0569 15.7237 51.0371 21.346C52.8922 32.3792 47.6775 43.0764 37.92 48.2425C35.4855 49.5425 34.9353 49.3283 33.9468 46.6698C32.9584 44.0113 33.1045 43.8019 35.8214 43.8555C38.5383 43.909 38.8743 43.5244 38.7428 40.7539C38.6795 39.4149 39.6046 37.9201 38.1731 36.7808C39.9065 35.8946 38.7964 33.0949 41.0507 32.5399C42.677 32.1357 43.1298 31.1084 42.2729 29.6769C40.8706 27.3398 40.5346 24.764 40.2425 22.1299C39.5121 15.62 34.0004 10.1229 27.51 9.30002C20.8833 8.46255 14.4367 11.9975 12.0216 17.7965C12.0216 17.7965 8.05338 27.5053 14.4367 35.2324Z" fill="#6277EE"/>
<path d="M25.4748 16.7056C24.9372 16.7033 24.4126 16.8705 23.9756 17.1834C23.5385 17.4963 23.2112 17.9391 23.0403 18.4487H10.5317V20.0798H23.0597C23.21 20.5248 23.48 20.9197 23.84 21.2213C24.2 21.5229 24.6361 21.7195 25.1005 21.7895C25.5649 21.8595 26.0396 21.8002 26.4725 21.6182C26.9054 21.4361 27.2798 21.1383 27.5545 20.7575C27.8293 20.3766 27.9939 19.9274 28.0301 19.4592C28.0664 18.991 27.973 18.5218 27.7601 18.1032C27.5473 17.6846 27.2232 17.3327 26.8235 17.0861C26.4238 16.8396 25.9639 16.7079 25.4942 16.7056H25.4748ZM25.4748 20.2795C25.2735 20.2795 25.0768 20.2198 24.9094 20.108C24.7421 19.9961 24.6116 19.8372 24.5346 19.6513C24.4576 19.4653 24.4374 19.2607 24.4767 19.0633C24.516 18.8659 24.6129 18.6846 24.7552 18.5423C24.8975 18.3999 25.0788 18.303 25.2762 18.2638C25.4736 18.2245 25.6783 18.2446 25.8642 18.3217C26.0501 18.3987 26.2091 18.5291 26.3209 18.6965C26.4327 18.8638 26.4924 19.0606 26.4924 19.2618C26.4924 19.5317 26.3852 19.7906 26.1943 19.9814C26.0035 20.1722 25.7447 20.2795 25.4748 20.2795Z" fill="#6277EE"/>
<path d="M27.3981 31.4346C26.8598 31.4319 26.3344 31.5995 25.8971 31.9135C25.4599 32.2274 25.1331 32.6717 24.9636 33.1826H12.4551V34.8088H24.9831C25.1341 35.252 25.4041 35.645 25.7636 35.9449C26.123 36.2449 26.5581 36.4401 27.0211 36.5093C27.4841 36.5784 27.9572 36.5189 28.3887 36.3371C28.8201 36.1554 29.1932 35.8584 29.4671 35.4787C29.741 35.0991 29.9052 34.6514 29.9417 34.1846C29.9782 33.7179 29.8855 33.2501 29.6739 32.8325C29.4622 32.415 29.1398 32.0636 28.7418 31.8171C28.3439 31.5705 27.8857 31.4382 27.4176 31.4346H27.3981ZM27.3981 35.0085C27.1978 35.0085 27.002 34.9491 26.8354 34.8378C26.6689 34.7265 26.5391 34.5683 26.4624 34.3833C26.3858 34.1982 26.3657 33.9946 26.4048 33.7981C26.4439 33.6017 26.5403 33.4212 26.682 33.2796C26.8236 33.138 27.0041 33.0415 27.2005 33.0024C27.397 32.9633 27.6006 32.9834 27.7857 33.0601C27.9707 33.1367 28.1289 33.2665 28.2402 33.4331C28.3515 33.5996 28.4109 33.7954 28.4109 33.9957C28.4141 34.1307 28.3903 34.2651 28.3409 34.3908C28.2914 34.5165 28.2174 34.631 28.123 34.7276C28.0286 34.8243 27.9159 34.9011 27.7914 34.9535C27.6669 35.0059 27.5332 35.0329 27.3981 35.0328V35.0085Z" fill="#6277EE"/>
<path d="M20.8052 26.5264C20.2677 26.5241 19.7431 26.6913 19.3061 27.0042C18.869 27.3171 18.5417 27.7599 18.3707 28.2695H10.3076V29.9006H18.3902C18.5405 30.3456 18.8104 30.7405 19.1704 31.0421C19.5304 31.3437 19.9666 31.5403 20.4309 31.6103C20.8953 31.6803 21.37 31.621 21.8029 31.439C22.2358 31.2569 22.6102 30.9591 22.885 30.5783C23.1598 30.1974 23.3243 29.7482 23.3606 29.28C23.3969 28.8118 23.3035 28.3426 23.0906 27.924C22.8777 27.5054 22.5537 27.1535 22.154 26.9069C21.7542 26.6604 21.2943 26.5287 20.8247 26.5264H20.8052ZM20.8052 30.1003C20.604 30.1003 20.4072 30.0406 20.2399 29.9287C20.0725 29.8169 19.9421 29.658 19.8651 29.4721C19.788 29.2861 19.7679 29.0815 19.8072 28.8841C19.8464 28.6867 19.9433 28.5054 20.0857 28.3631C20.228 28.2207 20.4093 28.1238 20.6067 28.0846C20.8041 28.0453 21.0087 28.0654 21.1947 28.1425C21.3806 28.2195 21.5395 28.3499 21.6514 28.5173C21.7632 28.6846 21.8229 28.8814 21.8229 29.0826C21.8229 29.3525 21.7156 29.6114 21.5248 29.8022C21.334 29.993 21.0751 30.1003 20.8052 30.1003Z" fill="#6277EE"/>
<path d="M35.7727 21.6137C35.236 21.6092 34.7116 21.7744 34.2744 22.0857C33.8372 22.397 33.5095 22.8385 33.3381 23.3471H9.33386V24.9734H33.3381C33.4895 25.4175 33.7603 25.8113 34.121 26.1114C34.4816 26.4116 34.918 26.6065 35.3822 26.6747C35.8464 26.743 36.3204 26.6819 36.7521 26.4981C37.1839 26.3144 37.5566 26.0152 37.8293 25.6334C38.102 25.2516 38.2642 24.802 38.2979 24.3341C38.3317 23.8661 38.2358 23.3979 38.0207 22.9809C37.8056 22.5639 37.4797 22.2143 37.0788 21.9705C36.6779 21.7267 36.2175 21.5982 35.7483 21.5991L35.7727 21.6137ZM35.7727 25.1876C35.5726 25.1866 35.3772 25.1264 35.2113 25.0145C35.0454 24.9027 34.9164 24.7442 34.8405 24.559C34.7646 24.3739 34.7452 24.1704 34.7848 23.9743C34.8245 23.7782 34.9213 23.5982 35.0631 23.457C35.205 23.3159 35.3854 23.2199 35.5817 23.1812C35.7781 23.1425 35.9814 23.1628 36.1662 23.2396C36.351 23.3164 36.5089 23.4463 36.6199 23.6127C36.731 23.7791 36.7903 23.9747 36.7903 24.1748C36.7903 24.3083 36.7639 24.4403 36.7127 24.5635C36.6615 24.6867 36.5865 24.7986 36.4919 24.8927C36.3974 24.9868 36.2852 25.0613 36.1617 25.1119C36.0383 25.1625 35.9061 25.1882 35.7727 25.1876Z" fill="#6277EE"/>
</g>
<defs>
<clipPath id="clip0_39_5411">
<rect width="171.083" height="50" fill="white"/>
</clipPath>
</defs>
</svg>
